<svg xmlns="http://www.w3.org/2000/svg" viewBox="0 0 256 250"><rect width="256" height="249.6" fill="#00005b" rx="42.5"/><path fill="#99f" d="M102.843 149.333H63.172L55.1 174.454a2.02 2.02 0 0 1-1.901 1.547L32.947 176q-1.72 0-1.202-1.89l34.347-98.509.687-2.129c.45-2.291.68-4.62.687-6.955a1.063 1.063 0 0 1 1.202-1.202h27.306q1.2 0 1.374.859l38.983 109.335q.515 1.718-1.03 1.717h-22.326a1.59 1.59 0 0 1-1.717-1.202zm-33.488-21.181h27.134c-4.552-14.51-8.404-27.205-12.602-42.485h-.172c-3.778 15.286-8.587 29.626-14.36 42.485m130.518 11.404h-33.831c1.06 8.106 4.4 13.642 11.076 16.901 7.94 3.65 17.695 1.223 24.253-1.698q.859-.685.86.858v16.315c.028.445-.061.889-.259 1.288a43.7 43.7 0 0 1-11.412 3.943c-13.327 2.31-27.19 1.191-37.824-8.423-8.4-7.595-10.736-19.061-10.736-30.156 0-22.759 13.269-44.989 41.387-44.989 22.565 0 36.236 16.772 36.236 36.917 0 5.178-.378 9.722-.687 11.334a1.556 1.556 0 0 1-1.545 1.374c-5.33.532-11.049.392-17.087.336m-33.831-15.645h23.386c3.953 0 6.156-.014 7.687-.911v-1.03c0-8.437-5.367-13.74-14.596-13.74-8.139 0-13.821 5.06-16.487 15.681"/></svg>
