<svg xmlns="http://www.w3.org/2000/svg" viewBox="0 0 256 250"><rect width="256" height="249.6" fill="#300" rx="42.5"/><path fill="#ff9a00" d="M124.054 149.79h-39.67l-8.072 25.073a2.02 2.02 0 0 1-2.061 1.546H54.158q-1.718 0-1.202-1.89l34.347-98.918c.802-2.406 1.717-6.181 1.717-10.475a1.063 1.063 0 0 1 1.202-1.203h27.306q1.2 0 1.374.86l38.983 109.908q.515 1.72-1.03 1.718h-22.326a1.59 1.59 0 0 1-1.717-1.202zm-33.488-21.638H117.7c-4.582-14.602-8.741-28.351-13.568-45.479h-.171c-3.734 15.291-8.306 29.61-13.395 45.479m90.501-46.025c-7.694 0-13.052-5.24-13.052-13.567 0-7.452 5.789-13.223 13.395-13.223 7.727 0 13.224 5.287 13.224 13.223 0 7.713-5.55 13.567-13.567 13.567m-11.85 92.564V92.603q-.001-1.546 1.374-1.546h21.124q1.373 0 1.374 1.546v82.088q0 1.72-1.374 1.718h-20.952q-1.464 0-1.541-1.542z"/></svg>
