<svg xmlns="http://www.w3.org/2000/svg" viewBox="0 0 256 250"><rect width="256" height="249.6" fill="#001e36" rx="42.5"/><path fill="#31a8ff" d="M57.644 175.035V65.297q0-1.201 1.031-1.202c10.247-.176 22.11-.515 33.155-.515 31.223 0 46.54 15.129 46.54 37.953 0 26.52-19.392 39.259-46.692 39.259-4.259 0-7.37-.172-10.819-.172v34.263a1.366 1.366 0 0 1-1.546 1.546H58.847q-1.204.001-1.203-1.374M80.84 84.703v35.792c3.354.259 6.494.172 9.788.172 15.059 0 24.382-5.513 24.382-18.12 0-12.435-9.077-18.117-22.483-18.117-4.822 0-8.327.087-11.687.273m123.93 29.284c-6.639-3.787-13.82-4.98-21.227-4.98-7.814 0-11.574 1.785-11.574 5.839 0 3.741 4.482 6.349 12.182 9.101 25.44 8.785 27.307 20.652 27.307 29.419 0 17.125-13.434 27.134-35.347 27.134-9.716 0-19.277-1.727-25.447-5.777a2.22 2.22 0 0 1-1.202-1.89v-18.718c0-1.215.661-1.608 1.374-.859 8.07 4.419 17.65 6.87 25.76 6.87 8.016 0 11.678-2.036 11.678-6.991 0-3.945-4.732-6.639-13.395-9.875-22.14-7.902-24.901-19.12-24.901-28.276 0-14.471 11.24-27.477 34.691-27.477 10.815 0 19.274 1.189 26.31 3.435 1.133.327 1.374 1.148 1.374 2.233v17.345c0 1.292-.67 1.56-1.46 1.117"/></svg>
